<svg width="200" height="200" viewBox="0 0 200 200" fill="none" xmlns="http://www.w3.org/2000/svg">
<g clip-path="url(#clip0_104_299)">
<path d="M79.2769 2.14307C76.11 4.20372 76.0045 4.53342 76.0045 10.9626C76.0045 16.7324 75.5822 18.381 73.0487 22.0901C71.4653 24.4805 67.1373 31.157 63.3371 36.9268C59.5368 42.6966 56.2644 47.5597 55.9477 47.807C55.631 48.0542 52.3586 52.8349 48.664 58.5223C44.9693 64.2097 41.5913 69.1552 41.1691 69.6498C38.53 72.205 34.4131 93.8006 34.5187 104.681C34.5187 109.132 35.9966 115.066 38.0022 118.281C38.53 119.188 39.4801 121.413 40.1135 123.227C40.6413 125.04 41.908 128.914 42.8581 131.881C43.7026 134.849 44.8637 137.816 45.3916 138.558C45.9194 139.3 46.6583 141.36 47.0805 143.091C47.3972 144.905 48.2417 146.718 48.7695 147.295C50.0363 148.531 50.1418 154.96 48.9807 155.702C47.5028 156.527 43.2803 161.39 43.2803 162.214C43.2803 162.626 42.6469 163.45 41.8025 163.945C41.0635 164.439 40.1135 165.923 39.7968 167.242C39.1634 169.467 38.53 169.797 33.0408 170.621C29.6629 171.116 26.1793 171.693 25.2293 171.94C23.5403 172.27 17.9455 178.369 17.9455 179.771C17.9455 180.183 17.3121 180.512 16.6788 180.512C15.9398 180.512 16.2565 181.007 17.4177 181.584C19.74 182.656 93.95 183.068 97.4335 181.996C99.1225 181.419 98.9114 180.842 95.0056 176.474L90.7831 171.528L83.6049 171.281L76.5323 171.034L75.8989 161.472C75.4767 156.197 74.6322 151.169 73.9988 150.18C73.3654 149.273 72.3098 146.553 71.6764 144.08C71.0431 141.69 70.093 139.3 69.6708 138.887C69.2485 138.393 68.5096 136.744 68.1929 135.178C67.3484 131.881 66.8206 130.892 62.7037 124.298C61.1203 121.66 59.4313 119.517 58.9035 119.517C58.4812 119.517 58.059 119.105 58.059 118.693C58.059 118.199 56.4755 115.891 54.4699 113.5C50.4585 108.72 48.1362 102.703 50.8808 104.516C51.8308 105.093 53.8365 107.071 55.5255 109.049C62.0703 116.632 75.7933 129.985 82.6549 135.508L89.9386 141.36L89.4108 135.426C89.1997 132.129 88.4608 128.996 87.933 128.419C87.2996 127.842 86.4551 126.029 86.0328 124.463C85.6106 122.897 84.8717 120.424 84.2383 119.023C82.6549 115.561 85.1883 108.06 87.194 110.286C87.8274 111.028 88.6719 113.171 88.9886 114.984C89.9386 119.435 93.95 129.573 95.4278 130.975C96.1668 131.716 96.6946 139.135 96.9057 152.405L97.2224 172.6L100.284 176.144C110.84 188.343 121.924 199.141 124.352 199.635C128.363 200.46 129.208 199.223 127.413 194.772C126.569 192.629 125.407 189.332 124.985 187.519C124.668 185.705 123.824 183.81 123.402 183.315C119.496 179.523 116.857 150.51 119.707 144.905C120.657 143.174 122.241 140.206 123.191 138.228C124.141 136.332 125.724 133.283 126.674 131.469C129.63 125.782 131.741 121.66 132.374 120.094C132.691 119.353 133.43 118.693 134.169 118.693C136.597 118.693 134.591 125.864 127.835 141.195C125.196 147.048 124.563 149.768 124.563 155.208C124.563 164.522 125.196 165.016 131.53 160.071C137.864 155.043 142.086 153.312 147.892 153.312C151.587 153.312 152.115 153.147 151.481 151.828C149.159 147.46 146.097 133.53 147.47 133.53C148.42 133.53 153.065 141.36 153.065 142.926C153.065 143.586 153.487 144.328 158.659 153.312C160.032 155.785 162.987 159.329 165.204 161.142C170.799 165.841 173.755 169.715 175.021 173.918C175.655 175.979 176.71 179.276 177.344 181.337C178.611 185.211 178.716 184.881 170.904 195.926C169.849 197.327 169.321 198.729 169.638 198.976C170.06 199.223 176.077 199.47 183.255 199.47H196.134L197.928 194.195C198.984 191.31 199.512 187.848 199.195 186.53C198.245 182.82 194.761 173.589 194.023 172.682C193.706 172.187 193.072 170.374 192.65 168.561C192.228 166.747 191.489 164.852 191.067 164.439C190.645 163.945 189.695 161.555 189.061 159.082C187.794 154.384 188.217 151.086 191.489 141.608C192.967 137.239 192.756 134.189 191.067 132.293C190.645 131.799 189.695 129.491 188.956 127.101C188.322 124.793 187.267 122.65 186.844 122.402C186.317 122.155 185.683 120.507 185.261 118.693C184.628 115.561 184.839 115.149 191.595 108.637C195.5 104.846 199.089 100.889 199.617 99.8176C200.673 97.757 199.406 90.3387 197.506 87.5362C196.978 86.7944 196.239 84.4864 195.817 82.4258C195.395 80.4476 194.656 78.2221 194.128 77.4802C193.6 76.8208 192.756 74.7602 192.122 72.8644L191.067 69.485L184.628 68.908C176.288 68.2486 163.621 68.2486 146.414 68.9904C134.908 69.4025 133.219 69.6498 134.802 70.5565C135.858 71.2159 139.13 73.1117 142.086 74.925L147.47 78.1397L164.465 78.7166L181.355 79.2936L185.261 87.4538C187.478 91.9048 188.956 96.1909 188.533 96.8503C187.583 98.911 177.977 108.72 176.605 109.132C175.021 109.626 169.532 108.225 160.032 104.681C152.431 101.961 149.581 99.9825 128.469 82.5907C116.857 73.0293 117.49 73.0293 112.423 81.3543C107.462 89.6793 106.617 88.1956 109.784 76.656C111.262 71.4632 110.629 61.9018 108.834 60.9951C108.095 60.6654 105.351 60.7478 102.606 61.0775C99.8614 61.4072 95.3223 61.7369 92.3665 61.7369L87.0885 61.8194L91.3109 60.2533C105.562 54.8956 110.945 53.6592 120.974 52.9998C128.68 52.5877 129.841 52.2579 133.641 49.7852C135.858 48.2191 138.391 46.5706 139.13 46.1584C141.242 44.7572 140.608 42.9438 137.758 42.3669C135.225 41.8723 130.897 38.4928 130.897 37.0092C130.897 35.7728 133.113 36.1849 135.858 37.9159C138.814 39.7292 140.186 39.8941 142.403 38.8226C143.564 38.2456 143.458 37.6686 141.769 35.7728C138.391 31.8988 135.119 26.0466 135.119 23.7386C135.119 22.5847 134.38 21.1834 133.536 20.6064C132.691 20.0295 131.952 19.2876 131.952 18.8755C131.952 18.5458 129.63 16.2379 126.674 13.8475C123.824 11.4572 121.396 9.23169 121.396 8.90199C121.396 8.48985 115.062 8.24258 107.356 8.24258C95.0056 8.24258 92.9999 8.07773 91.522 6.75891C90.4664 5.93466 89.7275 4.86313 89.7275 4.36858C89.7275 3.29703 85.1883 0 83.7105 0C83.0771 0 81.0714 0.989105 79.2769 2.14307ZM119.074 23.0792C123.085 26.8708 123.296 28.0248 119.918 28.0248C116.857 28.0248 114.007 26.0466 114.007 23.9035C114.007 23.0792 113.69 21.8428 113.373 21.101C112.107 18.6282 115.59 19.7822 119.074 23.0792Z" fill="black"/>
<path d="M126.674 6.59394C125.302 7.25335 125.618 7.83033 128.574 10.0558L131.952 12.7759V9.23157C131.952 5.60483 130.263 4.78058 126.674 6.59394Z" fill="black"/>
<path d="M4.32803 193.7C2.00567 196.42 0 198.811 0 198.976C0 199.058 13.0897 199.47 29.1351 199.8C62.387 200.377 115.062 199.635 115.062 198.481C115.062 197.987 113.268 195.679 111.157 193.206L107.145 188.755H57.9534H8.76163L4.32803 193.7Z" fill="black"/>
</g>
<defs>
<clipPath id="clip0_104_299">
<rect width="200" height="200" fill="white"/>
</clipPath>
</defs>
</svg>
