<svg width="120" height="90" viewBox="0 0 120 90" fill="none" xmlns="http://www.w3.org/2000/svg">
<path d="M103.58 86.5384H16.1061C9.79036 86.5384 4.42188 80.6537 4.42188 73.7307V16.2692C4.42188 9.34608 9.79036 3.46143 16.1061 3.46143H103.58C109.896 3.46143 115.264 9.34608 115.264 16.2692V73.7307C115.264 80.6537 110.211 86.5384 103.58 86.5384Z" stroke="black" stroke-width="6" stroke-miterlimit="10"/>
<path d="M36.6319 39.1155C41.8642 39.1155 46.1055 34.621 46.1055 29.077C46.1055 23.5329 41.8642 19.0386 36.6319 19.0386C31.3997 19.0386 27.1582 23.5329 27.1582 29.077C27.1582 34.621 31.3997 39.1155 36.6319 39.1155Z" stroke="black" stroke-width="6" stroke-miterlimit="10"/>
<path d="M49.2636 70.6154H24.0005C21.4742 70.6154 19.2637 68.1924 19.2637 65.4231V56.4231C19.2637 49.1539 24.632 43.2693 31.2636 43.2693H42.0005C48.6321 43.2693 54.0005 49.1539 54.0005 56.4231V65.4231C54.3163 68.1924 52.1057 70.6154 49.2636 70.6154Z" stroke="black" stroke-width="6" stroke-miterlimit="10"/>
<path d="M68.8418 25.9614H100.737" stroke="black" stroke-width="6" stroke-miterlimit="10" stroke-linecap="round"/>
<path d="M68.8418 38.7693H100.737" stroke="black" stroke-width="6" stroke-miterlimit="10" stroke-linecap="round"/>
<path d="M68.8418 51.2307H100.737" stroke="black" stroke-width="6" stroke-miterlimit="10" stroke-linecap="round"/>
<path d="M68.8418 64.0386H100.737" stroke="black" stroke-width="6" stroke-miterlimit="10" stroke-linecap="round"/>
</svg>
